<svg xmlns="http://www.w3.org/2000/svg" width="80.501" height="80.5" viewBox="0 0 80.501 80.5">
  <g id="checklist_3_" data-name="checklist (3)" transform="translate(-1 -1)">
    <path id="Trazado_873224" data-name="Trazado 873224" d="M62.069,71.621V10.552A5.568,5.568,0,0,0,56.517,5H6.552A5.568,5.568,0,0,0,1,10.552V71.621a5.568,5.568,0,0,0,5.552,5.552H56.517A5.552,5.552,0,0,0,62.069,71.621Z" transform="translate(0 1.552)" fill="#ad6d40"/>
    <rect id="Rectángulo_400994" data-name="Rectángulo 400994" width="50.929" height="60.786" rx="1" transform="translate(5.929 12.499)" fill="#f8f8ff"/>
    <path id="Trazado_873225" data-name="Trazado 873225" d="M37.207,6.552v4.164a2.784,2.784,0,0,1-2.776,2.776H17.776A2.784,2.784,0,0,1,15,10.716V6.552a1.392,1.392,0,0,1,1.388-1.388h4.344a5.546,5.546,0,0,1,10.743,0h4.344A1.392,1.392,0,0,1,37.207,6.552Z" transform="translate(5.431)" fill="#cbcbf4"/>
    <path id="Trazado_873226" data-name="Trazado 873226" d="M72.19,29.96V67.49a2.784,2.784,0,0,1-2.776,2.776H27.776A2.784,2.784,0,0,1,25,67.49V29.96Z" transform="translate(9.31 11.234)" fill="#ea9453"/>
    <path id="Trazado_873227" data-name="Trazado 873227" d="M71.766,31.657,63.53,23.421A1.432,1.432,0,0,0,62.517,23H34.673a1.429,1.429,0,0,0-1.013.421l-8.236,8.236A1.433,1.433,0,0,0,26.437,34.1H70.754a1.433,1.433,0,0,0,1.013-2.447Z" transform="translate(9.311 8.534)" fill="#fcb36b"/>
    <path id="Trazado_873228" data-name="Trazado 873228" d="M50.879,31.388V41.1a1.388,1.388,0,0,1-1.388,1.388h-11.1A1.388,1.388,0,0,1,37,41.1V31.388L38.388,30h11.1Z" transform="translate(13.965 11.25)" fill="#723535"/>
    <rect id="Rectángulo_400995" data-name="Rectángulo 400995" width="9.857" height="8.214" rx="1" transform="translate(40.429 68.356)" fill="#fff"/>
    <path id="Trazado_873229" data-name="Trazado 873229" d="M50.879,34.1,46.716,23H41.164L37,34.1Z" transform="translate(13.965 8.534)" fill="#914747"/>
    <path id="Trazado_873230" data-name="Trazado 873230" d="M49.757,49.407a1.386,1.386,0,0,0-1.963,0l-1.388,1.388a1.388,1.388,0,0,0,.981,2.369v4.164a1.388,1.388,0,1,0,2.776,0V53.164a1.388,1.388,0,0,0,.981-2.369Z" transform="translate(17.457 18.62)" fill="#20295e"/>
    <path id="Trazado_873231" data-name="Trazado 873231" d="M57.145,50.795l-1.388-1.388a1.386,1.386,0,0,0-1.963,0l-1.388,1.388a1.388,1.388,0,0,0,.981,2.369v4.164a1.388,1.388,0,1,0,2.776,0V53.164a1.388,1.388,0,0,0,.981-2.369Z" transform="translate(19.784 18.62)" fill="#20295e"/>
    <g id="Grupo_1099133" data-name="Grupo 1099133" transform="translate(14.879 20.432)">
      <path id="Trazado_873232" data-name="Trazado 873232" d="M15.164,26.1a1.383,1.383,0,0,1-.981-.407l-2.776-2.776a1.388,1.388,0,0,1,1.963-1.963l1.579,1.579,4.612-6.919a1.388,1.388,0,1,1,2.31,1.541l-5.552,8.328A1.387,1.387,0,0,1,15.3,26.1c-.046,0-.092.007-.137.007Z" transform="translate(-11 -15)" fill="#43a867"/>
      <path id="Trazado_873233" data-name="Trazado 873233" d="M15.164,38.1a1.383,1.383,0,0,1-.981-.407l-2.776-2.776a1.388,1.388,0,0,1,1.963-1.963l1.579,1.579,4.612-6.919a1.388,1.388,0,0,1,2.31,1.541l-5.552,8.328A1.387,1.387,0,0,1,15.3,38.1c-.046,0-.092.007-.137.007Z" transform="translate(-11 -10.345)" fill="#43a867"/>
      <path id="Trazado_873234" data-name="Trazado 873234" d="M15.164,50.1a1.383,1.383,0,0,1-.981-.407l-2.776-2.776a1.388,1.388,0,0,1,1.963-1.963l1.579,1.579,4.612-6.919a1.388,1.388,0,0,1,2.31,1.541l-5.552,8.328A1.387,1.387,0,0,1,15.3,50.1c-.046,0-.092.007-.137.007Z" transform="translate(-11 -5.69)" fill="#43a867"/>
    </g>
  </g>
</svg>
