<svg id="Grupo_1104154" data-name="Grupo 1104154" xmlns="http://www.w3.org/2000/svg" width="107.798" height="107.797" viewBox="0 0 107.798 107.797">
  <g id="Grupo_1104104" data-name="Grupo 1104104" transform="translate(61.789 13.482)">
    <path id="Trazado_874956" data-name="Trazado 874956" d="M293.478,64.036h7.5V82.372h-7.5Z" transform="translate(-293.478 -64.036)" fill="#eceaec"/>
  </g>
  <g id="Grupo_1104107" data-name="Grupo 1104107" transform="translate(12.961 28.978)">
    <g id="Grupo_1104106" data-name="Grupo 1104106">
      <g id="Grupo_1104105" data-name="Grupo 1104105">
        <path id="Trazado_874957" data-name="Trazado 874957" d="M130.346,164,94,169.8,63.379,164l-1.819-22.02c0-2.4,2.514-4.338,4.91-4.338h4.457l8.413,12.431,8.413-12.431h38.254a4.338,4.338,0,0,1,4.338,4.338Z" transform="translate(-61.56 -137.637)" fill="#3a8cd6"/>
      </g>
    </g>
  </g>
  <g id="Grupo_1104110" data-name="Grupo 1104110" transform="translate(9.054 28.978)">
    <g id="Grupo_1104109" data-name="Grupo 1104109">
      <g id="Grupo_1104108" data-name="Grupo 1104108">
        <path id="Trazado_874958" data-name="Trazado 874958" d="M53.067,137.638H47.341A4.338,4.338,0,0,0,43,141.976V164l5.726.914V141.976A4.338,4.338,0,0,1,53.067,137.638Z" transform="translate(-43.003 -137.638)" fill="#0280ce"/>
      </g>
    </g>
  </g>
  <g id="Grupo_1104111" data-name="Grupo 1104111" transform="translate(15.691 7.974)">
    <path id="Trazado_874959" data-name="Trazado 874959" d="M74.527,37.874c3.666,0,2.146,2.972,2.146,6.637l4.491,6.611V77.289H97.991V44.511a6.637,6.637,0,0,0-6.637-6.637H74.527Z" transform="translate(-74.527 -37.874)" fill="#eceaec"/>
  </g>
  <g id="Grupo_1104112" data-name="Grupo 1104112" transform="translate(9.054 7.974)">
    <path id="Trazado_874960" data-name="Trazado 874960" d="M49.64,37.875A6.637,6.637,0,0,0,43,44.512v6.611H56.277V44.512A6.637,6.637,0,0,0,49.64,37.875Z" transform="translate(-43.003 -37.875)" fill="#dad8db"/>
  </g>
  <g id="Grupo_1104115" data-name="Grupo 1104115" transform="translate(51.97 0)">
    <g id="Grupo_1104114" data-name="Grupo 1104114">
      <g id="Grupo_1104113" data-name="Grupo 1104113">
        <path id="Trazado_874961" data-name="Trazado 874961" d="M274.512,15.948H249.518a3.223,3.223,0,0,1-2.678-2.684l.051-9.3c0-1.163,1.717-3.967,2.88-3.967h24.741a2.105,2.105,0,0,1,2.105,2.105V13.843A2.105,2.105,0,0,1,274.512,15.948Z" transform="translate(-246.84)" fill="#e5646e"/>
      </g>
    </g>
  </g>
  <g id="Grupo_1104116" data-name="Grupo 1104116" transform="translate(49.435 0)">
    <path id="Trazado_874962" data-name="Trazado 874962" d="M238.937,13.779V2.169A2.169,2.169,0,0,1,241.106,0h-4.138A2.169,2.169,0,0,0,234.8,2.169v11.61a2.169,2.169,0,0,0,2.169,2.169h4.138A2.169,2.169,0,0,1,238.937,13.779Z" transform="translate(-234.799 0)" fill="#db4655"/>
  </g>
  <g id="Grupo_1104118" data-name="Grupo 1104118" transform="translate(51.313 36.926)">
    <g id="Grupo_1104117" data-name="Grupo 1104117">
      <path id="Trazado_874963" data-name="Trazado 874963" d="M264.261,185.849H247.055c-1.163,0-3.335-.775-3.335-1.937l.1-5.811c0-1.163,2.071-2.715,3.234-2.715h17.206a2.105,2.105,0,0,1,2.105,2.105v6.252a2.105,2.105,0,0,1-2.105,2.105Z" transform="translate(-243.72 -175.386)" fill="#eceaec"/>
    </g>
  </g>
  <g id="Grupo_1104119" data-name="Grupo 1104119" transform="translate(49.435 36.926)">
    <path id="Trazado_874964" data-name="Trazado 874964" d="M238.693,183.68v-6.125a2.169,2.169,0,0,1,2.169-2.169h-3.894a2.169,2.169,0,0,0-2.169,2.169v6.125a2.169,2.169,0,0,0,2.169,2.169h3.894A2.169,2.169,0,0,1,238.693,183.68Z" transform="translate(-234.799 -175.386)" fill="#dad8db"/>
  </g>
  <g id="Grupo_1104120" data-name="Grupo 1104120" transform="translate(26.743 19.595)">
    <path id="Trazado_874965" data-name="Trazado 874965" d="M132.761,96.325h-4.112a1.627,1.627,0,1,1,0-3.253h4.112a1.627,1.627,0,0,1,0,3.253Z" transform="translate(-127.022 -93.072)" fill="#dad8db"/>
  </g>
  <g id="Grupo_1104121" data-name="Grupo 1104121" transform="translate(26.743 27.352)">
    <path id="Trazado_874966" data-name="Trazado 874966" d="M132.761,133.165h-4.112a1.627,1.627,0,1,1,0-3.253h4.112a1.627,1.627,0,0,1,0,3.253Z" transform="translate(-127.022 -129.912)" fill="#dad8db"/>
  </g>
  <g id="Grupo_1104122" data-name="Grupo 1104122" transform="translate(26.743 35.108)">
    <path id="Trazado_874967" data-name="Trazado 874967" d="M132.761,170.005h-4.112a1.627,1.627,0,1,1,0-3.253h4.112a1.627,1.627,0,1,1,0,3.253Z" transform="translate(-127.022 -166.752)" fill="#dad8db"/>
  </g>
  <g id="Grupo_1104123" data-name="Grupo 1104123" transform="translate(53.778 6.348)">
    <path id="Trazado_874968" data-name="Trazado 874968" d="M277.427,33.4H257.055a1.627,1.627,0,0,1,0-3.253h20.373a1.627,1.627,0,1,1,0,3.253Z" transform="translate(-255.428 -30.149)" fill="#eceaec"/>
  </g>
  <g id="Grupo_1104124" data-name="Grupo 1104124" transform="translate(17.324 45.763)">
    <path id="Trazado_874969" data-name="Trazado 874969" d="M107.492,220.61H83.912a1.627,1.627,0,0,1,0-3.253h23.581a1.627,1.627,0,0,1,0,3.253Z" transform="translate(-82.285 -217.357)" fill="#0280ce"/>
  </g>
  <g id="Grupo_1104125" data-name="Grupo 1104125" transform="translate(4.068 55.337)">
    <path id="Trazado_874970" data-name="Trazado 874970" d="M97,262.831H30.033L19.32,282.152l1.632,3.19,40.33,3.943,27.365-4.5,8.744-21Z" transform="translate(-19.32 -262.831)" fill="#80b4fb"/>
  </g>
  <g id="Grupo_1104128" data-name="Grupo 1104128" transform="translate(4.573 77.291)">
    <g id="Grupo_1104127" data-name="Grupo 1104127">
      <g id="Grupo_1104126" data-name="Grupo 1104126">
        <path id="Trazado_874971" data-name="Trazado 874971" d="M103.61,397.611h-77.3a4.556,4.556,0,0,1-4.586-4.338L22.847,367.1h63.83l7.957,12.273,13.314,8.395v5.5a4.338,4.338,0,0,1-4.338,4.338Z" transform="translate(-21.72 -367.105)" fill="#3a8cd6"/>
      </g>
    </g>
  </g>
  <g id="Grupo_1104131" data-name="Grupo 1104131" transform="translate(0 77.291)">
    <g id="Grupo_1104130" data-name="Grupo 1104130">
      <g id="Grupo_1104129" data-name="Grupo 1104129">
        <path id="Trazado_874972" data-name="Trazado 874972" d="M5.7,393.273V367.1H0v26.169a4.338,4.338,0,0,0,4.338,4.338h5.7A4.338,4.338,0,0,1,5.7,393.273Z" transform="translate(0 -367.105)" fill="#0280ce"/>
      </g>
    </g>
  </g>
  <g id="Grupo_1104132" data-name="Grupo 1104132" transform="translate(0 55.336)">
    <path id="Trazado_874973" data-name="Trazado 874973" d="M9.054,262.83,0,284.784H5.726L14.78,262.83Z" transform="translate(0 -262.83)" fill="#61a2f9"/>
  </g>
  <g id="Grupo_1104133" data-name="Grupo 1104133" transform="translate(69.498 56.287)">
    <path id="Trazado_874974" data-name="Trazado 874974" d="M330.091,287.162q0,.6.032,1.185l3.984,3.772,2.033-.444,3.787-3.328,4.872-15.99-2.068-5.014A21.889,21.889,0,0,0,330.091,287.162Z" transform="translate(-330.091 -267.343)" fill="#61a2f9"/>
  </g>
  <g id="Grupo_1104136" data-name="Grupo 1104136" transform="translate(69.53 77.291)">
    <g id="Grupo_1104135" data-name="Grupo 1104135">
      <g id="Grupo_1104134" data-name="Grupo 1104134">
        <path id="Trazado_874975" data-name="Trazado 874975" d="M330.245,367.105a21.7,21.7,0,0,0,1.809,7.591h9.7a2.169,2.169,0,0,1,2.169,2.169V386.2a21.725,21.725,0,0,0,7.591,1.569V367.105Z" transform="translate(-330.245 -367.105)" fill="#0280ce"/>
      </g>
    </g>
  </g>
  <g id="Grupo_1104137" data-name="Grupo 1104137" transform="translate(11.448 84.882)">
    <path id="Trazado_874976" data-name="Trazado 874976" d="M55.078,416.316l-.7-10.986c0-1.2,1.781-2.169,2.979-2.169h56.913L120.2,409.2l5.935,5.473v1.647a2.169,2.169,0,0,1-2.169,2.169H57.705C56.507,418.485,55.078,417.514,55.078,416.316Z" transform="translate(-54.373 -403.161)" fill="#eceaec"/>
  </g>
  <g id="Grupo_1104138" data-name="Grupo 1104138" transform="translate(71.339 84.882)">
    <path id="Trazado_874977" data-name="Trazado 874977" d="M350.707,414.669V405.33a2.169,2.169,0,0,0-2.169-2.169h-9.7A21.988,21.988,0,0,0,350.707,414.669Z" transform="translate(-338.836 -403.161)" fill="#dad8db"/>
  </g>
  <g id="Grupo_1104139" data-name="Grupo 1104139" transform="translate(7.591 84.882)">
    <path id="Trazado_874978" data-name="Trazado 874978" d="M41.6,416.316V405.33a2.169,2.169,0,0,1,2.169-2.169H38.225a2.169,2.169,0,0,0-2.169,2.169v10.986a2.169,2.169,0,0,0,2.169,2.169h5.544A2.169,2.169,0,0,1,41.6,416.316Z" transform="translate(-36.056 -403.161)" fill="#dad8db"/>
  </g>
  <g id="Grupo_1104140" data-name="Grupo 1104140" transform="translate(42.212 90.917)">
    <path id="Trazado_874979" data-name="Trazado 874979" d="M205.244,435.08h-3.123a1.627,1.627,0,1,1,0-3.253h3.123a1.627,1.627,0,1,1,0,3.253Z" transform="translate(-200.494 -431.827)" fill="#766e6e"/>
  </g>
  <g id="Grupo_1104141" data-name="Grupo 1104141" transform="translate(21.94 60.835)">
    <path id="Trazado_874980" data-name="Trazado 874980" d="M109.153,292.2h-3.319a1.627,1.627,0,1,1,0-3.253h3.319a1.627,1.627,0,1,1,0,3.253Z" transform="translate(-104.208 -288.946)" fill="#4591e5"/>
  </g>
  <g id="Grupo_1104142" data-name="Grupo 1104142" transform="translate(35.39 60.835)">
    <path id="Trazado_874981" data-name="Trazado 874981" d="M173.035,292.2h-3.319a1.627,1.627,0,1,1,0-3.253h3.319a1.627,1.627,0,1,1,0,3.253Z" transform="translate(-168.09 -288.946)" fill="#4591e5"/>
  </g>
  <g id="Grupo_1104143" data-name="Grupo 1104143" transform="translate(48.839 60.835)">
    <path id="Trazado_874982" data-name="Trazado 874982" d="M236.916,292.2H233.6a1.627,1.627,0,0,1,0-3.253h3.319a1.627,1.627,0,1,1,0,3.253Z" transform="translate(-231.971 -288.946)" fill="#4591e5"/>
  </g>
  <g id="Grupo_1104144" data-name="Grupo 1104144" transform="translate(62.289 60.835)">
    <path id="Trazado_874983" data-name="Trazado 874983" d="M300.8,292.2H297.48a1.627,1.627,0,0,1,0-3.253H300.8a1.627,1.627,0,1,1,0,3.253Z" transform="translate(-295.853 -288.946)" fill="#4591e5"/>
  </g>
  <g id="Grupo_1104145" data-name="Grupo 1104145" transform="translate(21.94 68.033)">
    <path id="Trazado_874984" data-name="Trazado 874984" d="M109.153,326.386h-3.319a1.627,1.627,0,1,1,0-3.253h3.319a1.627,1.627,0,1,1,0,3.253Z" transform="translate(-104.208 -323.133)" fill="#4591e5"/>
  </g>
  <g id="Grupo_1104146" data-name="Grupo 1104146" transform="translate(35.39 68.033)">
    <path id="Trazado_874985" data-name="Trazado 874985" d="M173.035,326.386h-3.319a1.627,1.627,0,1,1,0-3.253h3.319a1.627,1.627,0,1,1,0,3.253Z" transform="translate(-168.09 -323.133)" fill="#4591e5"/>
  </g>
  <g id="Grupo_1104147" data-name="Grupo 1104147" transform="translate(48.839 68.033)">
    <path id="Trazado_874986" data-name="Trazado 874986" d="M236.916,326.386H233.6a1.627,1.627,0,0,1,0-3.253h3.319a1.627,1.627,0,1,1,0,3.253Z" transform="translate(-231.971 -323.133)" fill="#4591e5"/>
  </g>
  <g id="Grupo_1104148" data-name="Grupo 1104148" transform="translate(62.289 68.033)">
    <path id="Trazado_874987" data-name="Trazado 874987" d="M300.8,326.386H297.48a1.627,1.627,0,0,1,0-3.253H300.8a1.627,1.627,0,1,1,0,3.253Z" transform="translate(-295.853 -323.133)" fill="#4591e5"/>
  </g>
  <g id="Grupo_1104149" data-name="Grupo 1104149" transform="translate(76.805 59.779)">
    <path id="Trazado_874988" data-name="Trazado 874988" d="M395.792,300.258a16.442,16.442,0,0,1-14.372,16.31,17.336,17.336,0,0,1-2.067-.167c-9.079,0-14.553-7.064-14.553-16.143s5.474-16.2,14.553-16.2a17.078,17.078,0,0,1,2.131-.1A16.442,16.442,0,0,1,395.792,300.258Z" transform="translate(-364.8 -283.932)" fill="#ffc269"/>
  </g>
  <g id="Grupo_1104150" data-name="Grupo 1104150" transform="translate(74.92 59.667)">
    <path id="Trazado_874989" data-name="Trazado 874989" d="M360.219,299.836a16.438,16.438,0,0,1,14.252-16.289,16.438,16.438,0,1,0,0,32.579A16.438,16.438,0,0,1,360.219,299.836Z" transform="translate(-355.846 -283.398)" fill="#ffa95f"/>
  </g>
  <path id="Trazado_874990" data-name="Trazado 874990" d="M413.823,313.2c-.04,0-.081,0-.12,0a2.107,2.107,0,1,1,2.228-2.1,1.627,1.627,0,1,0,3.253,0A5.37,5.37,0,0,0,415.45,306v-1.975a1.627,1.627,0,0,0-3.253,0V306a5.361,5.361,0,0,0,1.627,10.468q.061,0,.12,0a2.107,2.107,0,1,1-2.228,2.1,1.627,1.627,0,0,0-3.253,0,5.37,5.37,0,0,0,3.734,5.108v1.975a1.627,1.627,0,0,0,3.253,0V323.67a5.36,5.36,0,0,0-1.627-10.468Z" transform="translate(-322.465 -238.728)" fill="#eceaec"/>
</svg>
